<?xml version="1.0" encoding="utf-8"?>
<!-- Generator: Adobe Illustrator 24.0.0, SVG Export Plug-In . SVG Version: 6.00 Build 0)  -->
<svg version="1.1" xmlns="http://www.w3.org/2000/svg" xmlns:xlink="http://www.w3.org/1999/xlink" x="0px" y="0px"
	 viewBox="0 0 81.9 215.2" style="enable-background:new 0 0 81.9 215.2;" xml:space="preserve">
<style type="text/css">
	.st0{fill:none;}
	.st1{fill:#13803B;}
	.st2{fill:#FFFFFF;}
	.st3{fill:#E7A84F;}
	.st4{fill:#FFFDFB;}
</style>
<g id="圖層_2">
</g>
<g id="圖層_3">
	<g>
		<path class="st0" d="M15.1,73.2c0,1.8-1.6,5.1,5.8,5.1l3.2,0v-9.7l-4.4,0C15.8,68.7,15.1,69.6,15.1,73.2z"/>
		<path class="st0" d="M13.4,36.4l0,2.4c0,4.7,3,6,6.1,6c1.6,0,2.8-0.3,3.7-1c0.4-0.2,0.7-0.5,0.9-0.9v-7.9l-9.6,0
			C13.1,35.1,13.4,35.4,13.4,36.4z"/>
		<path class="st0" d="M14.6,55.7c0,3.5,2.4,6.5,9.6,6.8v-13C17.5,49.7,14.6,51.8,14.6,55.7z"/>
		<path class="st0" d="M13.4,114.3c0,1.8,0.1,5.1,7.5,5.1l3.3,0v-9.7l-4.5,0C15.7,109.7,13.4,110.7,13.4,114.3z"/>
		<polygon class="st0" points="22.3,25.5 24.2,25.1 24.2,19 22.3,18.6 		"/>
		<path class="st1" d="M25.4,62.5c7.8,0,11.9-2.6,11.9-6.3c0-1.8,0.6-3.4-1.7-4.7c-2.7-1.4-6.1-2.1-10.2-2.1c-0.4,0-0.8,0-1.3,0v13
			C24.6,62.5,25,62.5,25.4,62.5z"/>
		<polygon class="st1" points="37.8,22.2 24.2,19 24.2,25.1 		"/>
		<path class="st1" d="M33.3,43.9c2.5,0,4.5-1.1,4.5-4.7l0.1-3c0-1.1-0.7-1.2-1.6-1.2l-9.4,0l0,2.9C26.9,40.5,28.5,43.9,33.3,43.9z"
			/>
		<path class="st1" d="M25.6,38.9v-3.8l-1.4,0V43C25.3,41.6,25.6,39.6,25.6,38.9z"/>
		<path class="st1" d="M24.2,10.4v7.7l15,3.5l1,1.3l-16,3.5v7.4l12.1,0c0.6,0,2.1,0,2.1-1.3v-1h1.4l0,7.7c0,4.9-4,5.8-6.4,5.8
			c-3.8,0-5.6-1.9-6.8-3.9L26.2,42c-0.4,1.1-1.1,2-2.1,2.7v3.4c0.4,0,0.8,0,1.3,0c8.3,0,14.9,3.5,14.9,8c0,4.4-6.8,7.8-14.9,7.8
			c-0.4,0-0.8,0-1.2,0v3.6l11.5,0c2.6,0,2.9-0.8,2.9-1.2v-1.2h1.1l0,6h-1.1v-1c0-0.9-1-1.4-2.9-1.4l-11.5,0v9.7l11.6,0
			c2.3,0,2.8-0.6,2.8-1v-1.2h1.1l0,5.2h-1.1v-1.1c0-0.6-0.9-1.1-2.8-1.2l-11.6,0v11l12.6,0c0.8,0,1.6-0.3,1.6-1.3
			c0-3-1.8-4.3-6.3-5.9v-0.6l7.5,1.9l0,12.8l-7.4,2.1v-0.6c4.8-1.8,6.2-2.8,6.2-6c0-1.1-1.2-1.3-1.6-1.3l-12.6,0v17.2l11.4,0
			c2.6,0,2.9-0.8,2.9-1.2v-1.2h1.1l0,6h-1.1v-1c0-0.9-1-1.4-2.9-1.4l-11.4,0v9.7l11.5,0c2.3,0,2.8-0.6,2.8-1v-1.2h1.1l0,5.2h-1.1
			v-1.1c0-0.6-0.8-1.1-2.8-1.1l-11.5,0v10.1c0.6-2.3,1.7-3.8,3.3-4.5c1.4-0.7,3-1,4.8-1c4.5,0,7.7,2.4,7.7,5.1c0,1.1-0.7,2.4-2,3.9
			l0.9,0.7v0.2l-6.9,1.4l0-0.6c3.5-1.2,5.5-2.6,5.5-5.5c0-2.3-1.5-3.9-4.6-3.9c-4.9,0-6,2.3-6.6,4.4c-0.4,1.8-1.1,3.2-2.1,4.2v63.7
			h41.3V10.4H24.2z"/>
		<path class="st1" d="M22.3,25.5l0-7l1.8,0.4v-0.9l-8.4-2c-3.3-0.8-3.3-1.3-3.3-3h-1.2l0,6.1h1.2v-1c0-0.9,0.4-1.4,1.6-1.4
			c0.5,0,1,0.1,1.7,0.2l5.3,1.3l0,7.5L15.3,27c-0.5,0.1-0.9,0.2-1.3,0.2c-1.1,0-1.5-0.4-1.6-1.6v-0.7h-1.2l0,6.2h1.2v-1
			c0-0.6,0.6-1.3,1.7-1.5l10-2.2v-1.3L22.3,25.5z"/>
		<polygon class="st2" points="39.2,21.7 24.2,18.1 24.2,19 37.8,22.2 24.2,25.1 24.2,26.5 40.2,23 		"/>
		<path class="st1" d="M23.2,43.8c-0.9,0.7-2.2,1-3.7,1c-3.2,0-6.1-1.3-6.1-6l0-2.4c0-1-0.3-1.3,1.2-1.3l9.6,0v-1.2l-9.6,0
			c-1.5,0-2-0.5-2-1.3v-1h-1.4l0,7.2c0,3.2,1.5,7.2,8.2,7.2c2,0,3.5-0.5,4.7-1.3V43C23.9,43.3,23.6,43.6,23.2,43.8z"/>
		<path class="st2" d="M26.2,42l0.2-0.7c1.2,2,3,3.9,6.8,3.9c2.5,0,6.4-0.9,6.4-5.8l0-7.7h-1.4v1c0,1.3-1.5,1.3-2.1,1.3l-12.1,0v1.2
			l1.4,0v3.8c0,0.7-0.3,2.7-1.4,4.1v1.8C25.2,44,25.9,43.1,26.2,42z M26.9,35.1l9.4,0c0.9,0,1.6,0.1,1.6,1.2l-0.1,3
			c0,3.5-2,4.7-4.5,4.7c-4.8,0-6.4-3.5-6.4-5.9L26.9,35.1z"/>
		<path class="st1" d="M14.6,55.7c0-3.9,2.9-6,9.6-6.2v-1.4c-8.1,0.3-13.5,3.7-13.5,8c0,4.1,5.3,7.4,13.5,7.8v-1.4
			C17,62.1,14.6,59.2,14.6,55.7z"/>
		<path class="st2" d="M40.3,56.1c0-4.5-6.6-8-14.9-8c-0.4,0-0.8,0-1.3,0v1.4c0.4,0,0.8,0,1.3,0c4.1,0,7.5,0.7,10.2,2.1
			c2.3,1.2,1.7,2.9,1.7,4.7c0,3.7-4.1,6.3-11.9,6.3c-0.4,0-0.8,0-1.2,0v1.4c0.4,0,0.8,0,1.2,0C33.5,63.9,40.3,60.5,40.3,56.1z"/>
		<path class="st1" d="M21,78.4c-7.4,0-5.8-3.3-5.8-5.1c0-3.6,0.6-4.6,4.6-4.6l4.4,0v-1.2l-4.4,0c-2.9,0-5.1,0.4-6.4,1.2
			c-1.7,1-2.5,2.4-2.5,4.2c0,3.1,2.1,6.3,10.2,6.3l3.2,0v-0.8L21,78.4z"/>
		<path class="st2" d="M35.7,68.7c1.9,0,2.9,0.5,2.9,1.4v1h1.1l0-6h-1.1v1.2c0,0.3-0.3,1.2-2.9,1.2l-11.5,0v1.2L35.7,68.7z"/>
		<path class="st2" d="M38.5,80.3v1.1h1.1l0-5.2h-1.1v1.2c0,0.3-0.6,1-2.8,1l-11.6,0v0.8l11.6,0C37.7,79.2,38.5,79.7,38.5,80.3z"/>
		<path class="st1" d="M14.4,90.2c-1.2,0-2.1-0.4-2.1-1.2v-1.2h-1.2l0,6h1.2v-1.2c0-0.6,0.4-1.2,2.1-1.2l9.7,0v-1.2L14.4,90.2z"/>
		<path class="st2" d="M38.4,92.7c0,3.2-1.4,4.2-6.2,6v0.6l7.4-2.1l0-12.8L32,82.4v0.6c4.5,1.6,6.4,2.9,6.3,5.9c0,1-0.8,1.3-1.6,1.3
			l-12.6,0v1.2l12.6,0C37.2,91.4,38.4,91.6,38.4,92.7z"/>
		<path class="st1" d="M20.9,119.4c-7.5,0-7.5-3.3-7.5-5.1c0-3.6,2.3-4.6,6.3-4.6l4.5,0v-1.2l-4.5,0c-2.9,0-5.1,0.4-6.4,1.2
			c-1.7,1-2.5,2.4-2.5,4.2c0,3.1,2.1,6.3,10.2,6.3l3.3,0v-0.8L20.9,119.4z"/>
		<path class="st2" d="M35.6,109.8c1.9,0,2.9,0.5,2.9,1.4v1h1.1l0-6h-1.1v1.2c0,0.4-0.3,1.2-2.9,1.2l-11.4,0v1.2L35.6,109.8z"/>
		<path class="st2" d="M38.4,121.4v1.1h1.1l0-5.2h-1.1v1.2c0,0.3-0.5,1-2.8,1l-11.5,0v0.8l11.5,0C37.6,120.3,38.4,120.8,38.4,121.4z
			"/>
		<path class="st1" d="M24.1,130.4c-1,4.1-4.1,4.9-5.9,4.9c-3.4,0-5.2-2.1-5.2-4.5c0-2.7,2.1-4.6,5.6-6.3v-0.6l-6.7,1.7v0.2l1.1,0.7
			c-1.5,1.8-2.2,3.3-2.2,4.5c0,3.2,3.7,5.5,8.4,5.6c1.6,0,3-0.4,4.4-1.4c0.2-0.2,0.5-0.4,0.7-0.6L24.1,130.4
			C24.2,130.4,24.1,130.4,24.1,130.4z"/>
		<path class="st2" d="M26.3,130.4c0.6-2,1.7-4.4,6.6-4.4c3.1,0,4.6,1.6,4.6,3.9c0,2.9-2.1,4.3-5.5,5.5l0,0.6l6.9-1.4v-0.2l-0.9-0.7
			c1.3-1.5,2-2.8,2-3.9c0-2.7-3.1-5.1-7.7-5.1c-1.8,0-3.4,0.3-4.8,1c-1.5,0.7-2.6,2.3-3.3,4.5v4.2C25.1,133.7,25.9,132.3,26.3,130.4
			z"/>
	</g>
</g>
<g id="圖層_1">
	<g>
		<g>
			<g>
				<path class="st3" d="M46.2,154.2c-0.4,0.4-0.7,0.8-1.1,1.2c-0.7,0.8-1.3,1.6-2,2.3c-0.8,0.9-1.6,1.9-2.4,2.8
					c-0.6,0.8-1.3,1.5-1.9,2.3c-0.8,0.9-1.5,1.8-2.3,2.7c-0.6,0.8-1.3,1.5-1.9,2.2c-0.8,0.9-1.6,1.9-2.4,2.8
					c-0.6,0.7-1.2,1.4-1.8,2.1c-0.5,0.6-1.1,1.3-1.6,1.9c-0.1,0.1-0.2,0.2-0.3,0c-1-1.1-2-2.3-2.9-3.4c-1-1.2-2.1-2.5-3.1-3.7
					c-0.9-1.1-1.9-2.2-2.8-3.3c-0.9-1.1-1.8-2.2-2.7-3.3c-0.8-0.9-1.5-1.8-2.3-2.7c-0.9-1.1-1.9-2.2-2.8-3.3
					c-0.2-0.2-0.4-0.4-0.6-0.6c-0.1-0.2-0.1-0.3,0-0.4c0.6-0.7,1.2-1.4,1.9-2.2c0.6-0.8,1.3-1.5,1.9-2.3c0.6-0.8,1.3-1.5,1.9-2.2
					c0.8-0.9,1.6-1.9,2.4-2.9c0.6-0.8,1.3-1.5,1.9-2.3c0.8-0.9,1.5-1.8,2.3-2.7c0.6-0.8,1.3-1.5,1.9-2.2c0.8-0.9,1.6-1.9,2.4-2.8
					c0,0,0.1-0.1,0.1-0.1c0.3-0.2,0.4-0.7,0.7-0.7c0.3,0,0.5,0.5,0.7,0.7c1.2,1.4,2.4,2.9,3.6,4.3c0.9,1.1,1.8,2.1,2.7,3.2
					c1.1,1.3,2.1,2.6,3.2,3.8c0.8,0.9,1.6,1.8,2.4,2.8c0.9,1.1,1.8,2.2,2.7,3.3c0.7,0.9,1.5,1.7,2.2,2.5
					C46.2,154.1,46.2,154.1,46.2,154.2z M33.6,147.5c0.1,0,0.2-0.1,0.2-0.1c0.3-0.3,0.7-0.4,1-0.6c0.2-0.2,0.7-0.2,0.7-0.4
					c0-0.3-0.4-0.3-0.7-0.4c-1.2-0.8-2.5-1.4-3.7-2.2c-0.2-0.1-0.4-0.1-0.6,0c-0.5,0.3-1,0.6-1.5,0.9c-0.2,0.1-0.1,0.2,0,0.3
					c0.9,0.6,1.9,1,2.8,1.6c0.5,0.3,1.1,0.6,1.6,0.9C33.4,147.5,33.5,147.5,33.6,147.5z M20.5,149.5c0.4,0.1,0.5,0.5,0.8,0.6
					c0.6,0.2,1.2,0.6,1.7,0.9c0.6,0.4,1.3,0.7,1.9,1.1c0.3,0.2,0.6,0.1,0.9-0.1c0.5-0.4,1.1-0.5,1.5-0.9c-0.2-0.3-0.6-0.4-1-0.6
					c-1.1-0.6-2.1-1.2-3.2-1.8c-0.4-0.3-0.8-0.3-1.2,0C21.5,149,21,149.2,20.5,149.5z M27.3,144.7c-0.5-0.2-1-0.5-1.5-0.8
					c-0.5-0.3-0.7-0.3-1.1,0c0,0-0.1,0.1-0.1,0.1c-1.3,0.7-2.6,1.4-3.8,2.2c-0.1,0-0.2,0-0.2,0.1c0,0.1,0.1,0.1,0.2,0.2
					c0.5,0.3,1,0.5,1.4,0.8c0.3,0.2,0.5,0.3,0.7,0c0-0.1,0.1-0.1,0.2-0.1c1.1-0.5,2.1-1.2,3.1-1.7C26.5,145.3,27,145.1,27.3,144.7z
					 M35.6,149.5c0-0.1-0.1-0.1-0.1-0.2c-0.6-0.3-1.2-0.7-1.8-1c-0.1-0.1-0.1,0-0.2,0.1c-0.4,0.3-0.8,0.5-1.3,0.7
					c-0.7,0.4-1.5,0.8-2.2,1.2c-0.3,0.2-0.6,0.4-0.9,0.5c-0.1,0.1-0.3,0.1-0.3,0.3c0,0.1,0.2,0.1,0.3,0.2c0.4,0.3,0.8,0.4,1.1,0.6
					c0.3,0.2,0.6,0.4,1,0.1c0.4-0.4,0.9-0.5,1.3-0.8C33.5,150.6,34.6,150.1,35.6,149.5z M23.2,147.9c0.6,0.4,1.2,0.7,1.9,1.1
					c0.5,0.3,1.1,0.5,1.6,1c0.1,0.1,0.1,0,0.2,0c0.8-0.5,0.8-0.5,0.8-1.4c0-0.1,0-0.2,0-0.3c0-0.9,0-1.9,0-2.8
					C26.2,146.2,24.7,147.1,23.2,147.9z M28.4,145.4c0,1.2,0,2.4,0,3.6c0,0.4,0.1,0.6,0.4,0.8c0.4,0.3,0.6,0.2,0.9,0
					c0.7-0.5,1.5-0.8,2.2-1.3c0.3-0.2,0.6-0.3,0.9-0.5C31.4,147.1,29.9,146.2,28.4,145.4z M23.8,156.4c0,0.3,0,0.7,0.1,1.1
					c0.2,0.7,0.7,1,1.3,0.7c0.1,0,0.2-0.1,0.3,0c0.8,0.4,1.4-0.3,1.4-1c0-0.6,0-1.1,0-1.7c0-0.3-0.2-0.3-0.4-0.3s-0.4,0-0.4,0.3
					c0,0.5,0,0.9,0,1.4c0,0.2,0.1,0.6-0.3,0.6c-0.3,0-0.3-0.3-0.3-0.6c0-0.4,0-0.9,0-1.3c0-0.3-0.1-0.3-0.3-0.3s-0.3,0-0.3,0.3
					c0,0.5,0,1,0,1.5c0,0.2,0,0.4-0.3,0.4s-0.3-0.2-0.3-0.4c0-0.5,0-1,0-1.5c0-0.2-0.1-0.3-0.3-0.3c-0.3,0-0.5,0.1-0.4,0.4
					C23.8,155.8,23.8,156.1,23.8,156.4z M32.7,156.7c0,0.8,0.6,1.6,1.3,1.6c0.7,0,1.3-0.7,1.3-1.6c0-0.9-0.6-1.6-1.3-1.6
					C33.3,155.1,32.7,155.8,32.7,156.7z M17.7,157.1C17.7,157.1,17.7,157.1,17.7,157.1c0-0.4,0-0.7,0-1.1c-0.2-0.8-0.8-1.1-1.4-0.8
					c-0.4,0.2-0.5,0.6-0.5,1.1c0,0.5,0,0.9,0,1.4c0,0.4,0.1,0.4,0.4,0.4c0.4,0,0.3-0.3,0.3-0.5c0-0.4,0.1-0.4,0.4-0.4
					c0.3,0.1,0.2,0.3,0.2,0.5c0,0.2,0,0.4,0.3,0.4c0.3,0,0.4-0.1,0.3-0.4C17.7,157.6,17.7,157.3,17.7,157.1z M37.6,157.3
					c0-0.2,0-0.4,0-0.6c0-0.2,0-0.4-0.3-0.4c-0.3,0-0.4,0.1-0.4,0.4c0,0.1,0,0.2,0,0.3c0,0.1,0.1,0.2-0.1,0.3c-0.1,0-0.2,0-0.3-0.1
					c-0.1-0.1-0.1-0.1-0.2-0.2c-0.2-0.5-0.1-1.2,0.9-1.1c0.1,0,0.3,0.1,0.3-0.1c0-0.2,0.2-0.6-0.1-0.7c-0.4-0.2-1.1,0-1.4,0.3
					c-0.7,0.8-0.7,1.8,0.1,2.5c0.3,0.3,0.8,0.3,1.3,0.2c0.4-0.1,0.1-0.5,0.2-0.7C37.6,157.4,37.6,157.4,37.6,157.3z M30.4,157.1
					C30.4,157.1,30.4,157.1,30.4,157.1c0-0.3,0-0.7,0-1c-0.1-0.8-0.8-1.1-1.4-0.8c-0.4,0.2-0.5,0.6-0.5,1c0,0.5,0,1.1,0,1.6
					c0,0.3,0.2,0.3,0.4,0.3c0.2,0,0.3-0.1,0.3-0.3c0-0.5,0-1,0-1.5c0-0.2,0-0.4,0.3-0.4c0.3,0,0.3,0.2,0.3,0.4c0,0.5,0,0.9,0,1.4
					c0,0.2,0,0.4,0.3,0.4c0.3,0,0.4-0.1,0.3-0.4C30.3,157.6,30.4,157.3,30.4,157.1z M20.1,156.4L20.1,156.4c0-0.3,0-0.6,0-0.9
					c0-0.3-0.1-0.3-0.4-0.3c-0.2,0-0.3,0.1-0.3,0.3c0,0.5,0,1,0,1.5c0,0.2,0,0.5-0.3,0.4c-0.3,0-0.3-0.3-0.3-0.5c0-0.5,0-1,0-1.5
					c0-0.2-0.1-0.3-0.3-0.2c-0.1,0-0.4-0.1-0.4,0.2c0,0.7-0.1,1.4,0,2.1c0.1,0.5,0.5,0.9,1,0.8c0.5,0,0.9-0.4,0.9-1
					C20.1,157,20.1,156.7,20.1,156.4z M22.6,155.2c-0.2,0-0.4,0-0.6,0c-0.2,0-0.3,0.1-0.3,0.3c0,0.2-0.2,0.6,0.3,0.6
					c0.3,0,0.3,0.1,0.3,0.3c0,0.5,0,1,0,1.5c0,0.3,0.1,0.4,0.4,0.4c0.3,0,0.3-0.1,0.3-0.4c0-0.5,0-1,0-1.5c0-0.2,0-0.4,0.3-0.4
					c0.2,0,0.2-0.1,0.2-0.3c0-0.6,0-0.6-0.5-0.6C22.9,155.2,22.8,155.2,22.6,155.2z M40.9,157.1c0,0.3,0,0.5,0,0.8
					c0,0.3,0.1,0.3,0.3,0.3c0.3,0,0.3-0.1,0.3-0.4c0-0.5,0-1,0-1.5c0-0.1,0-0.3,0.2-0.3c0.1,0,0.4,0.1,0.4-0.2c0-0.2,0-0.3,0-0.5
					c0-0.1-0.1-0.1-0.2-0.1c-0.5,0-0.9,0-1.3,0c-0.2,0-0.2,0.1-0.2,0.3c0,0.2-0.2,0.5,0.2,0.5c0.4,0,0.4,0.2,0.4,0.5
					C40.9,156.7,40.9,156.9,40.9,157.1z M21.5,155.5c0-0.4-0.1-0.5-0.5-0.4c-0.4,0.1-0.6,0.4-0.6,0.8c-0.1,0.4,0.1,0.8,0.3,1.1
					c0.1,0.2,0.1,0.4-0.1,0.4c-0.5,0-0.2,0.4-0.3,0.5c0,0.3,0.2,0.3,0.4,0.3c0.6,0,1-0.5,0.8-1.2c-0.1-0.3-0.2-0.5-0.3-0.8
					c-0.1-0.1-0.1-0.3,0.1-0.3C21.6,156,21.5,155.8,21.5,155.5z M40.1,155.5c0-0.4-0.1-0.5-0.5-0.4c-0.4,0.1-0.6,0.4-0.6,0.8
					c-0.1,0.4,0.2,0.8,0.3,1.1c0.1,0.2,0.1,0.4-0.2,0.4c-0.5,0-0.2,0.4-0.3,0.5c0,0.3,0.2,0.3,0.4,0.3c0.6,0,1-0.5,0.8-1.2
					c-0.1-0.3-0.2-0.5-0.3-0.8c-0.1-0.1-0.1-0.3,0.1-0.3C40.2,156,40.1,155.7,40.1,155.5z M31.6,156.3c0,0.3,0,0.5,0,0.8
					c0,0.3,0.1,0.6,0.3,0.9c0.2,0.2,0.4,0.2,0.7,0.2c0.1,0,0.2,0,0.2-0.1c0-0.2,0.1-0.5-0.2-0.6c-0.2-0.1-0.2-0.2-0.2-0.4
					c0-0.5,0-1,0-1.5c0-0.2,0-0.3-0.3-0.3c-0.3,0-0.5,0.1-0.4,0.4C31.6,155.8,31.6,156.1,31.6,156.3z M28,156.7c0-0.4,0-0.8,0-1.2
					c0-0.3-0.1-0.3-0.3-0.3c-0.2,0-0.4,0-0.4,0.3c0,0.8,0,1.6,0,2.4c0,0.3,0.2,0.3,0.4,0.3c0.2,0,0.3-0.1,0.3-0.3
					C28,157.5,28,157.1,28,156.7z M38.7,156.7c0-0.4,0-0.9,0-1.3c0-0.3-0.2-0.2-0.3-0.2s-0.3-0.1-0.3,0.2c0,0.8,0,1.7,0,2.5
					c0,0.3,0.2,0.2,0.4,0.3s0.3,0,0.3-0.3C38.7,157.5,38.7,157.1,38.7,156.7z M28,150.1c-0.2,0.1-0.4,0.1-0.4,0.2
					c0,0.2,0.3,0.3,0.4,0.3c0.1,0,0.4-0.1,0.4-0.3C28.4,150.2,28.2,150.2,28,150.1z"/>
			</g>
			<path class="st4" d="M33.6,147.5c-0.1-0.1-0.1-0.1-0.2-0.1c-0.5-0.3-1.1-0.6-1.6-0.9c-0.9-0.6-1.9-1-2.8-1.6
				c-0.1-0.1-0.3-0.1,0-0.3c0.5-0.3,1-0.6,1.5-0.9c0.2-0.1,0.4-0.1,0.6,0c1.2,0.8,2.5,1.4,3.7,2.2c0.2,0.1,0.7,0.2,0.7,0.4
				c0,0.2-0.5,0.2-0.7,0.4c-0.3,0.3-0.7,0.3-1,0.6C33.8,147.5,33.7,147.5,33.6,147.5z"/>
			<path class="st4" d="M20.5,149.5c0.5-0.3,1-0.5,1.4-0.8c0.4-0.3,0.8-0.3,1.2,0c1,0.6,2.1,1.2,3.2,1.8c0.4,0.2,0.8,0.3,1,0.6
				c-0.4,0.4-1,0.5-1.5,0.9c-0.2,0.2-0.5,0.3-0.9,0.1c-0.6-0.4-1.3-0.7-1.9-1.1c-0.6-0.3-1.1-0.7-1.7-0.9
				C21,149.9,20.8,149.6,20.5,149.5z"/>
			<path class="st4" d="M27.3,144.7c-0.3,0.4-0.8,0.5-1.2,0.8c-1,0.6-2,1.2-3.1,1.7c-0.1,0-0.1,0.1-0.2,0.1c-0.2,0.3-0.5,0.2-0.7,0
				c-0.5-0.3-0.9-0.6-1.4-0.8c-0.1,0-0.2-0.1-0.2-0.2c0-0.1,0.1-0.1,0.2-0.1c1.3-0.7,2.5-1.4,3.8-2.2c0.1,0,0.1-0.1,0.1-0.1
				c0.4-0.4,0.7-0.3,1.1,0C26.3,144.2,26.7,144.5,27.3,144.7z"/>
			<path class="st4" d="M35.6,149.5c-1,0.6-2,1.1-3,1.7c-0.4,0.3-0.9,0.4-1.3,0.8c-0.4,0.3-0.7,0.1-1-0.1c-0.4-0.3-0.8-0.4-1.1-0.6
				c-0.1-0.1-0.3-0.1-0.3-0.2c0-0.1,0.1-0.2,0.3-0.3c0.3-0.1,0.6-0.3,0.9-0.5c0.7-0.4,1.5-0.8,2.2-1.2c0.4-0.2,0.8-0.5,1.3-0.7
				c0.1,0,0.1-0.1,0.2-0.1c0.6,0.4,1.2,0.7,1.8,1C35.5,149.4,35.5,149.5,35.6,149.5z"/>
			<path class="st4" d="M23.2,147.9c1.5-0.9,3-1.7,4.5-2.6c0,1,0,1.9,0,2.8c0,0.1,0,0.2,0,0.3c0,1,0,1-0.8,1.4c-0.1,0-0.1,0.1-0.2,0
				c-0.5-0.4-1.1-0.7-1.6-1C24.5,148.6,23.9,148.3,23.2,147.9z"/>
			<path class="st2" d="M28.4,145.4c1.5,0.9,3,1.7,4.5,2.5c-0.3,0.2-0.6,0.4-0.9,0.5c-0.7,0.4-1.5,0.8-2.2,1.3
				c-0.4,0.2-0.6,0.3-0.9,0c-0.3-0.2-0.5-0.4-0.4-0.8C28.4,147.8,28.4,146.6,28.4,145.4z"/>
			<path class="st4" d="M23.8,156.4c0-0.3,0-0.5,0-0.8c0-0.4,0.1-0.4,0.4-0.4c0.2,0,0.3,0.1,0.3,0.3c0,0.5,0,1,0,1.5
				c0,0.2,0,0.4,0.3,0.4c0.3,0,0.3-0.3,0.3-0.4c0-0.5,0-1,0-1.5c0-0.3,0.1-0.3,0.3-0.3c0.2,0,0.4,0,0.3,0.3c0,0.4,0,0.9,0,1.3
				c0,0.2-0.1,0.6,0.3,0.6c0.3,0,0.3-0.3,0.3-0.6c0-0.5,0-0.9,0-1.4c0-0.3,0.2-0.3,0.4-0.3c0.2,0,0.4,0,0.4,0.3c0,0.6,0,1.1,0,1.7
				c0,0.8-0.7,1.4-1.4,1c-0.1-0.1-0.2,0-0.3,0c-0.6,0.2-1.1-0.1-1.3-0.7C23.7,157.1,23.8,156.7,23.8,156.4z"/>
			<path class="st4" d="M32.7,156.7c0-0.9,0.6-1.6,1.3-1.6c0.7,0,1.3,0.7,1.3,1.6c0,0.8-0.6,1.6-1.3,1.6
				C33.3,158.3,32.7,157.4,32.7,156.7z M34.7,156.7c0-0.4-0.3-0.7-0.6-0.7c-0.4,0-0.7,0.3-0.7,0.7c0,0.4,0.2,0.7,0.6,0.7
				C34.5,157.4,34.7,157.1,34.7,156.7z"/>
			<path class="st4" d="M17.7,157.1c0,0.3,0,0.5,0,0.8c0,0.3,0,0.4-0.3,0.4c-0.3,0-0.3-0.1-0.3-0.4c0-0.2,0.1-0.4-0.2-0.5
				c-0.3-0.1-0.5,0-0.4,0.4c0,0.2,0.2,0.5-0.3,0.5c-0.3,0-0.5-0.1-0.4-0.4c0-0.5,0-0.9,0-1.4c0-0.4,0.1-0.9,0.5-1.1
				c0.7-0.4,1.3,0,1.4,0.8C17.8,156.4,17.7,156.7,17.7,157.1C17.7,157.1,17.7,157.1,17.7,157.1z M16.7,156.7c0.2,0,0.4,0,0.4-0.2
				c0-0.2,0-0.4-0.3-0.5c-0.3,0-0.3,0.2-0.3,0.4C16.4,156.6,16.5,156.8,16.7,156.7z"/>
			<path class="st4" d="M37.6,157.3c0,0.1,0,0.1,0,0.2c-0.1,0.2,0.2,0.6-0.2,0.7c-0.4,0.1-0.9,0.1-1.3-0.2c-0.8-0.8-0.8-1.7-0.1-2.5
				c0.3-0.3,1-0.5,1.4-0.3c0.3,0.2,0.1,0.5,0.1,0.7c0,0.2-0.2,0.1-0.3,0.1c-1-0.1-1.1,0.5-0.9,1.1c0,0.1,0.1,0.2,0.2,0.2
				c0.1,0.1,0.2,0.1,0.3,0.1c0.1-0.1,0-0.2,0.1-0.3c0-0.1,0-0.2,0-0.3c0-0.3,0.1-0.4,0.4-0.4c0.3,0,0.3,0.1,0.3,0.4
				C37.6,157,37.6,157.1,37.6,157.3z"/>
			<path class="st4" d="M30.4,157.1c0,0.3,0,0.5,0,0.8c0,0.3,0,0.4-0.3,0.4c-0.3,0-0.3-0.1-0.3-0.4c0-0.5,0-0.9,0-1.4
				c0-0.2,0-0.4-0.3-0.4c-0.3,0-0.3,0.2-0.3,0.4c0,0.5,0,1,0,1.5c0,0.3-0.1,0.3-0.3,0.3c-0.2,0-0.4,0-0.4-0.3c0-0.5,0-1.1,0-1.6
				c0-0.4,0.1-0.8,0.5-1c0.6-0.4,1.3,0,1.4,0.8C30.4,156.4,30.3,156.7,30.4,157.1C30.3,157.1,30.4,157.1,30.4,157.1z"/>
			<path class="st4" d="M20.1,156.4c0,0.3,0,0.6,0,0.9c0,0.5-0.4,0.9-0.9,1c-0.5,0-0.9-0.3-1-0.8c-0.1-0.7,0-1.4,0-2.1
				c0-0.3,0.3-0.2,0.4-0.2c0.2,0,0.3,0,0.3,0.2c0,0.5,0,1,0,1.5c0,0.2,0,0.5,0.3,0.5c0.3,0,0.3-0.2,0.3-0.4c0-0.5,0-1,0-1.5
				c0-0.3,0.1-0.3,0.3-0.3c0.2,0,0.4,0.1,0.4,0.3C20.1,155.8,20.1,156.1,20.1,156.4C20.1,156.4,20.1,156.4,20.1,156.4z"/>
			<path class="st2" d="M22.6,155.2c0.1,0,0.2,0,0.3,0c0.6,0,0.6,0,0.5,0.6c0,0.2,0,0.3-0.2,0.3c-0.3,0-0.3,0.1-0.3,0.4
				c0,0.5,0,1,0,1.5c0,0.2,0,0.4-0.3,0.4c-0.3,0-0.4-0.1-0.4-0.4c0-0.5,0-1,0-1.5c0-0.2,0-0.4-0.3-0.3c-0.5,0-0.2-0.4-0.3-0.6
				c-0.1-0.2,0-0.3,0.3-0.3C22.3,155.2,22.5,155.2,22.6,155.2z"/>
			<path class="st2" d="M40.9,157.1c0-0.2,0-0.4,0-0.6c0-0.3,0-0.5-0.4-0.5c-0.3,0-0.1-0.4-0.2-0.5c0-0.1,0-0.3,0.2-0.3
				c0.5,0,0.9,0,1.3,0c0.1,0,0.2,0,0.2,0.1c0,0.2,0,0.3,0,0.5c0,0.3-0.3,0.2-0.4,0.2c-0.2,0.1-0.2,0.2-0.2,0.3c0,0.5,0,1,0,1.5
				c0,0.3,0,0.4-0.3,0.4c-0.3,0-0.4-0.1-0.3-0.3C40.9,157.6,40.9,157.4,40.9,157.1z"/>
			<path class="st4" d="M21.5,155.5c0,0.2,0.1,0.4-0.3,0.5c-0.2,0-0.1,0.2-0.1,0.3c0.1,0.3,0.3,0.5,0.3,0.8c0.2,0.6-0.2,1.2-0.8,1.2
				c-0.2,0-0.4,0-0.4-0.3c0-0.2-0.2-0.5,0.3-0.5c0.3,0,0.3-0.2,0.1-0.4c-0.2-0.4-0.4-0.7-0.3-1.1c0.1-0.4,0.2-0.7,0.6-0.8
				C21.5,155.1,21.5,155.1,21.5,155.5z"/>
			<path class="st4" d="M40.1,155.5c0,0.2,0.1,0.4-0.3,0.5c-0.2,0-0.2,0.2-0.1,0.3c0.1,0.3,0.3,0.5,0.3,0.8c0.2,0.6-0.2,1.2-0.8,1.2
				c-0.2,0-0.4,0-0.4-0.3c0-0.2-0.2-0.5,0.3-0.5c0.3,0,0.3-0.2,0.2-0.4c-0.2-0.4-0.4-0.7-0.3-1.1c0.1-0.4,0.2-0.7,0.6-0.8
				C40,155.1,40.1,155.1,40.1,155.5z"/>
			<path class="st4" d="M31.6,156.3c0-0.3,0-0.5,0-0.8c0-0.4,0.1-0.4,0.4-0.4c0.2,0,0.3,0.1,0.3,0.3c0,0.5,0,1,0,1.5
				c0,0.1,0,0.3,0.2,0.4c0.3,0.1,0.2,0.4,0.2,0.6c0,0.1-0.1,0.1-0.2,0.1c-0.2,0-0.5,0-0.6-0.2c-0.2-0.3-0.3-0.6-0.3-0.9
				C31.5,156.9,31.6,156.6,31.6,156.3z"/>
			<path class="st4" d="M28,156.7c0,0.4,0,0.8,0,1.2c0,0.3-0.1,0.3-0.3,0.3c-0.2,0-0.4,0-0.4-0.3c0-0.8,0-1.6,0-2.4
				c0-0.3,0.2-0.3,0.4-0.3c0.2,0,0.3,0.1,0.3,0.3C28,155.9,28,156.3,28,156.7z"/>
			<path class="st4" d="M38.7,156.7c0,0.4,0,0.8,0,1.2c0,0.3-0.2,0.3-0.3,0.3s-0.4,0.1-0.4-0.3c0-0.8,0-1.7,0-2.5
				c0-0.3,0.2-0.2,0.3-0.2s0.4-0.1,0.3,0.2C38.7,155.9,38.7,156.3,38.7,156.7z"/>
			<path class="st4" d="M28,150.1c0.2,0.1,0.4,0.1,0.4,0.3c0,0.2-0.2,0.3-0.4,0.3c-0.2,0-0.4-0.1-0.4-0.3
				C27.6,150.2,27.9,150.2,28,150.1z"/>
			<path class="st3" d="M34.7,156.7c0,0.4-0.3,0.7-0.7,0.7c-0.4,0-0.6-0.3-0.6-0.7c0-0.4,0.3-0.7,0.7-0.7
				C34.5,156,34.7,156.3,34.7,156.7z"/>
			<path class="st3" d="M16.7,156.7c-0.3,0.1-0.3-0.1-0.3-0.3c0-0.2,0.1-0.4,0.3-0.4c0.3,0,0.3,0.3,0.3,0.5
				C17.1,156.7,16.9,156.7,16.7,156.7z"/>
		</g>
	</g>
	<g>
		<path class="st3" d="M44.9,53.7l1.6,1.6h7.4l0.8-1l1.5,1.1c0.1,0.1,0.2,0.2,0.2,0.3s-0.1,0.5-0.5,0.6c-0.3,0.1-0.4,0.3-0.4,0.5
			v8.7c0,0.6-0.8,0.8-1.1,0.8s-0.4-0.3-0.4-0.8v-1.2l-5.6,0.4l-0.7,23c-1.2,1.2-1.5,1.3-2.5,1.6c-0.2,0-0.3-0.3-0.3-0.8L44.9,53.7
			L44.9,53.7z M46.4,56.4v3h7.5v-3H46.4z M46.4,60.6v2.7h7.5v-2.7H46.4z M55.8,74l-0.7-1.4c-0.1-0.1-0.1-0.2-0.1-0.2
			s0.1-0.3,0.2-0.3c0.5,0,2.3,2.8,2.3,3.9l-0.2,0.8c-0.1,0.2-0.3,0.4-0.5,0.4c-0.3,0-0.7-0.4-0.7-0.8L56,74.9L53,76l-3.1,0.8
			c-0.2,0-0.2,0.2-0.2,0.6c0,0.3-0.1,0.4-0.4,0.4c-0.3,0-0.5-0.2-0.6-0.8l-0.5-1.8l2.8-0.2c0.7-0.9,1.4-1.9,2.1-3l1.7-3.3l0.4-0.9
			l1.2,0.8c0.2,0.2,0.3,0.3,0.3,0.5c0,0.3-0.1,0.4-0.3,0.4l-0.3,0c-0.1,0-0.3,0.1-0.3,0.2c-0.5,1.1-1.3,2.2-2.1,3.3l-1.5,1.8
			L55.8,74z M50.4,77.6l1.4,0.2c0.5,0.1,0.7,0.3,0.7,0.6s-0.2,0.5-0.4,0.5s-0.3,0.2-0.3,0.3v2.6H55c0.2-0.9,0.3-2,0.2-3L55,77.6
			l1.6,0.2c0.3,0,0.5,0.2,0.5,0.4c0,0.3-0.1,0.4-0.3,0.5c-0.2,0-0.3,0.2-0.3,0.3c-0.1,3-0.5,5.1-1.2,6.1c-0.7,1.1-1.6,1.9-2.8,2.5
			c-0.8,0.4-3.1,1.2-4,1.2c-0.2,0-0.2-0.1-0.2-0.3c0-0.1,0.1-0.2,0.2-0.3c2.3-0.6,5.3-1.9,6.2-5.3h-3v1.4c0,0.2-0.1,0.3-0.3,0.4
			c-0.9,0.2-1,0.2-1-0.4L50.4,77.6L50.4,77.6z M50.9,69.6c1.1,0.9,1.4,1.5,1.4,2.4c0,0.4-0.3,0.6-0.7,0.6c-0.2,0-0.2,0-0.5-0.4
			c-0.4-0.9-1.3-2.7-2.5-3.5c-0.1,0-0.2-0.2-0.2-0.3s0.1-0.3,0.3-0.3c0.2,0,1,0.3,1.8,1c0.5-1,0.9-2.2,1.1-3.3l1.4,0.6
			c0.3,0.1,0.4,0.3,0.4,0.5c0,0.1,0,0.4-0.4,0.4l-0.4,0.2L50.9,69.6z M63.2,67c0.2,0.1,0.4,0.3,0.4,0.5c0,0.3-0.2,0.4-0.4,0.4
			c-0.2,0-0.4,0-0.5,0.2c-0.5,0.6-1.1,1.4-1.9,2c0.4,0.4,1,1.1,1,1.9c0,0.4-0.1,0.8-0.4,0.8c-0.6,0-0.7,0-0.8-0.4
			c-0.4-1.4-1.1-2.8-2-3.4c-0.1,0-0.2-0.2-0.2-0.2c0-0.3,0.2-0.3,0.3-0.3c0.5,0,1.3,0.7,1.7,1.2c0.6-1.1,1.1-2.2,1.5-3.4L63.2,67z
			 M66.2,73.7c-0.3-0.6-0.6-1.2-0.9-1.5c-0.1,0-0.1-0.1-0.1-0.2c0-0.1,0.1-0.3,0.3-0.3c0.4,0,2.8,2.9,2.8,4.4c0,0.6-0.2,1-0.6,1
			c-0.4,0-0.6-0.6-0.6-0.6l-0.5-1.8c-0.8,0.3-1.9,0.7-2.9,1l-2.9,0.7c-0.1,0-0.1,0.2-0.1,0.5c0,0.3-0.1,0.4-0.4,0.4
			c-0.3,0-0.5-0.2-0.7-0.8L59,74.8l2-0.1c1.6-1.8,3.1-4.4,4.4-7.1l1.1,0.9c0.2,0.2,0.3,0.3,0.3,0.5c0,0.2-0.2,0.4-0.3,0.4
			c0,0-0.2-0.1-0.3-0.1c-0.1,0-0.3,0.1-0.3,0.2c-0.7,1.1-1.5,2.3-2.5,3.6l-1.2,1.4h0.3L66.2,73.7z M60.2,77.4l1.4,0.2
			c0.4,0.1,0.7,0.3,0.7,0.6c0,0.3-0.2,0.5-0.3,0.5c-0.2,0-0.3,0.2-0.3,0.3v2.8h3.4v-4.2l1.4,0.2c0.5,0.1,0.7,0.3,0.7,0.6
			s-0.2,0.5-0.4,0.5c-0.2,0-0.3,0.2-0.3,0.3v5.1c0,0.2-0.1,0.3-0.3,0.4c-0.8,0.2-1,0.2-1-0.4V83h-3.3v5.4c0,0.2-0.1,0.3-0.3,0.4
			c-0.8,0.2-1,0.2-1-0.4L60.2,77.4L60.2,77.4z M71,86.9c0,1.1-0.6,1.8-2.9,2.3l-0.3-1.1c-0.2-0.4-0.8-0.8-1.8-1.2
			c-0.2-0.1-0.3-0.2-0.3-0.4c0-0.1,0-0.3,0.3-0.3h0.1c1.2,0.3,1.6-1.7,2.2-1.7c0.3,0,1.2,2.2,1.2,1.3V64.4h-7.5v1.3
			c0,0.5-0.8,0.8-1.2,0.8c-0.3,0-0.4-0.3-0.4-0.8V54.2l1.4,1.1h7.7l0.7-1l1.2,1.2c0.3,0.2,0.4,0.5,0.4,0.8s-0.2,0.6-0.4,0.7
			C71.1,57,71,57.2,71,57.4L71,86.9L71,86.9z M61.9,56.4v3h7.5v-3H61.9z M61.9,60.6v2.7h7.5v-2.7H61.9z"/>
		<path class="st3" d="M48.6,106.9c-0.2,3-0.8,13.3-5,19.2c-0.1,0-0.1,0.1-0.2,0.1c-0.1,0-0.3-0.1-0.3-0.3c0-0.1,0-0.2,0-0.2
			c3.2-6.5,4-16.4,4.1-25.8h-3.6l-0.2-1.1h5.2v-6.8l1.6,0.4c0.5,0.1,0.7,0.3,0.7,0.6s-0.2,0.5-0.4,0.6c-0.3,0.1-0.4,0.3-0.4,0.6
			l0.6,3l1.6,1.6l2.8-2.8l1.2,2.7c0.2,0.1,0.2,0.3,0.2,0.5c0,0.5-0.2,0.8-0.7,0.8h-7.2l-0.2,5.8h4.2l0.9-1l1.3,1.2
			c0.2,0.2,0.2,0.3,0.2,0.5c0,0.2-0.2,0.4-0.4,0.5c-0.3,0.2-0.3,0.3-0.3,2c0,6.5-0.5,12.3-1.2,14.4c-0.7,2.1-1.5,2.8-3.6,3.2
			c-0.1-1.2-1-1.8-2.3-2.1c-0.1,0-0.2-0.2-0.2-0.3c0-0.2,0.1-0.5,0.3-0.5c0,0,0.1,0,0.1,0c1.3,0.4,1.5-0.5,2.1-0.5
			c0.2,0,1,0.4,1.1,0.3c0.4-0.3,0.9-0.1,1.1-0.9c1-2.9,1-12.8,1-15.7L48.6,106.9L48.6,106.9z M66,93.3c0.4,0.1-1.3-0.9-1.3-0.6
			c0,0.4-0.2,0.5-0.6,0.7c1.6,5.5,4.1,12.3,8.5,14.6c0.1,0.1,0.2,0.2,0.2,0.3c0,0.2-0.2,0.3-0.6,0.3c-0.4,0-0.7,0.2-0.9,0.4
			c-0.1,0.2-0.3,0.3-0.3,0.3c-0.3,0-2.4-2.4-4.1-6.2c-1-2.2-2.1-3.6-3-7.1c0.5,3.2-1.3,3.4-3,5.8c-2.3,4.9-4.6,7.4-4.9,7.4
			c-0.2,0-0.3-0.2-0.3-0.3c0-0.1,0-0.2,0.1-0.2c4.1-5.2,6.2-12.1,6.6-15.8l0-1L66,93.3z M65.6,125.3c-2.8-6.3-5.7-8.2-6.6-8.6
			c-0.1,0-0.2-0.2-0.2-0.3c0-0.2,0.1-0.3,0.3-0.3c0.3,0,4-1.6,6.5,1.1c1.8,1.9,3.8,3.8,3.8,5.5c0,0.2-2.6,3.2-3.1,3.2
			C65.8,125.8,65.6,125.4,65.6,125.3z M65,112.9c-1.1-3.7-2.8-5.8-3.8-6.4c-0.1-0.1-0.2-0.2-0.2-0.3c0-0.1,0.1-0.3,0.3-0.3
			c0.7,0,5.6,2.1,6.2,4.7C67.5,111.7,65.6,112.9,65,112.9C64.8,112.9,65.2,113.5,65,112.9z"/>
		<path class="st3" d="M52.7,162.2c0,1.2-0.8,2.1-2.4,2.2c-0.2-1.4-1.7-1.7-2.8-1.9c-0.2,0-0.3-0.1-0.3-0.3c0-0.2,0.1-0.4,0.3-0.4
			h0.1c1.2,0.1,2.1,0.2,2.7,0.2c0.7,0,0.9,0,0.9-0.9V152l-3.5,2c-0.1,0-0.5,0.1-0.5,0.3c0,0.1-0.2,0.5-0.2,0.6
			c0,0.3-0.6,0.2-0.8,0.2c-0.3,0-0.6-0.3-0.7-0.7l-0.8-2c2.4-0.5,5.5-1.5,6.5-2v-8.5h-6.7l-0.3-1.1h7v-6.5c-1.2,0.7-5,1.9-5.8,1.9
			c-0.2,0-0.3-0.1-0.3-0.3c0-0.1,0.1-0.3,0.2-0.3c4-1.4,7.7-3.2,9.7-5.4l1.2,1.3c0.2,0.1,0.2,0.3,0.2,0.4c0,0.2-0.1,0.5-0.4,0.5
			l-0.6-0.2l-2.7,1.4v7.3h7.9c-0.1-2.5-0.2-5.5-0.2-8.9v-2l1.9,0.4c0.5,0.1,0.7,0.4,0.7,0.7c0,0.3-0.2,0.5-0.5,0.5s-0.5,0.1-0.5,0.3
			c0,1.7,0,3.3,0,4.8c0,1.5,0,2.8,0,4.1h5.5l2-2l2,1.8c0.2,0.1,0.3,0.3,0.3,0.6c0,0.5-0.3,0.8-0.7,0.8h-9l0.2,2.2
			c0.3,3.1,0.7,5.7,1.3,7.8l0.3,1.1l1.4-2.8c0.6-1.6,1.2-3.1,1.5-4.4l0.2-1.5l2,0.8c0.4,0.1,1.5,0.4,1.5,0.7c0,0.1-0.3,0.8-0.8,0.8
			c-0.3,0-0.5,0.4-0.5,0.5c-0.3,1.2-2.2,4.2-4.6,7.7c1.6,3.9,4.3,6.4,5.1,6.4c0.1,0,0.3-0.4,0.6-1.1l1-3c0-0.1,0.1-0.2,0.3-0.2
			c0,0,0.4,0,0.4,0.5l-0.7,3.4c0,0.3,0,0.5,0,0.7c0,0.4,0.1,0.8,0.2,1.1c0.1,0.3,0.2,0.5,0.2,0.8c0,0.1,0,0.8-0.8,0.8
			c-1.4,0-5.2-3.1-7.2-7.8c-3.4,4.9-8.6,7.4-8.9,7.4c-0.2,0-0.3-0.3-0.3-0.4s0.1-0.2,0.2-0.3c2.9-1.6,6.3-5,8.4-8.4l-0.4-1.3
			c-0.6-2-1.1-4.6-1.5-7.7l-0.3-3.9h-8v8l5-2.1c0.1,0,0.4-0.1,0.4,0.4c0,0.2-0.1,0.4-0.3,0.5c-1.5,1-3.3,1.9-5.1,2.7L52.7,162.2
			L52.7,162.2z M68.5,136c-0.1,0.4-0.4,0.6-0.7,0.6c-0.5,0-0.7-0.4-0.7-0.6c-0.6-2.2-1.4-3.5-2.1-4.1c-0.1-0.1-0.2-0.2-0.2-0.3
			c0-0.1,0.1-0.3,0.3-0.3c0.6,0,3,2.2,3.4,3.8C68.5,135,68.5,136,68.5,136z"/>
		<path class="st3" d="M47.1,179.9c-1,1.8-2,3.4-3.1,4.8c-0.1,0.1-0.2,0.1-0.3,0.1c-0.1,0-0.2-0.1-0.2-0.3c0-0.1,0-0.2,0.1-0.3
			c4.2-6.8,5.5-13.9,5.7-15.8v-1l1.8,0.3c0.4,0.1,0.6,0.3,0.6,0.6s-0.2,0.5-0.4,0.5c-0.3,0-0.4,0.1-0.4,0.2
			c-0.6,2.7-1.4,5.2-2.4,7.8c0.6,0.1,0.8,0.2,0.8,0.5c0,0.1-0.1,0.3-0.3,0.4c-0.2,0.1-0.3,0.3-0.3,0.5v23.3c0,0.2-0.1,0.4-0.4,0.4
			c-1.1,0.3-1.2,0.3-1.2-0.4L47.1,179.9L47.1,179.9z M53,166.8l1.5,1.4h4.5l0.8-1l1.5,1.1c0.1,0.1,0.2,0.2,0.2,0.4
			c0,0.3-0.2,0.5-0.5,0.6c-0.2,0.1-0.4,0.3-0.4,0.4v11.7c0,0.2-0.1,0.4-0.3,0.5c-1,0.3-1.2,0.3-1.2-0.5V180h-4.4v21.3
			c0,0.5-0.4,0.6-1.3,0.8c-0.2,0-0.3-0.3-0.3-0.8L53,166.8L53,166.8z M54.6,169.4v4.2h4.4v-4.2H54.6z M54.6,174.7v4.1h4.4v-4.1H54.6
			z M70.9,199.8c0,0.6-0.3,1.9-2.9,2.3c-0.1-1.4-1.3-1.9-2.6-2.3c-0.2-0.1-0.3-0.2-0.3-0.4c0-0.2,0.1-0.3,0.3-0.3l0.1-0.7
			c1.3,0.3,1.8,0.1,2.4,0.1c0.4,0,0.5-0.3,0.5-1.2l0.9-17.3h-4.4v1.1c0,0.2-0.1,0.4-0.3,0.5c-1,0.3-1.2,0.3-1.2-0.6v-13.8l1.2,1h4.7
			l0.7-1l1.2,1.2c0.3,0.2,0.4,0.5,0.4,0.8c0,0.3-0.2,0.6-0.4,0.7c-0.2,0.1-0.3,0.3-0.3,0.4L70.9,199.8L70.9,199.8z M64.9,169.4v4.2
			h4.4v-4.2H64.9z M64.9,174.7v4.1h4.4v-4.1H64.9z"/>
	</g>
</g>
</svg>
