<?xml version="1.0" encoding="utf-8"?>
<!-- Generator: Adobe Illustrator 24.0.0, SVG Export Plug-In . SVG Version: 6.00 Build 0)  -->
<svg version="1.1" id="Objects" xmlns="http://www.w3.org/2000/svg" xmlns:xlink="http://www.w3.org/1999/xlink" x="0px" y="0px"
	 viewBox="0 0 800 800" style="enable-background:new 0 0 800 800;" xml:space="preserve">
<style type="text/css">
	.st0{fill:#95AA3D;}
</style>
<g>
	<g>
		<g>
			<path class="st0" d="M18.62,378.9c0,0-12.1-46.91,6.93-57.31s44.81,24.54,44.81,24.54s-4.52-70.69,21.26-76.56
				c25.78-5.87,39.55,76.56,39.55,76.56s7.94-59.82,25.13-58.46c17.19,1.36,4.87,58.46,4.87,58.46s31.7-28.16,40.1-19.57
				c8.4,8.59,1.2,19.57,1.2,19.57s19.86-22.05,37.28-20.81c12.05,0.85,26.45,20.81,26.45,20.81s-7.07-54.91,12.15-57.47
				c19.22-2.56,21.43,57.47,21.43,57.47s8.67-46.71,21.42-44.66c12.75,2.05,4.62,44.66,4.62,44.66s16.33-20.58,24.01-18.53
				c7.69,2.05-2.48,18.53-2.48,18.53s15.25-13.41,20.91-11.87s19.29,11.87,19.29,11.87s-16.25-36.98-6.23-43.13
				c10.02-6.15,33.76,43.13,33.76,43.13s-8.36-82.58,12.39-83.61s36.73,83.61,36.73,83.61s25.71-33.39,36.38-32.88
				c10.67,0.51,5.16,32.88,5.16,32.88s13.71-19.04,23.45-20.07c9.74-1.02,26.13,20.07,26.13,20.07s-22.55-44.15-11.27-48.25
				c11.27-4.1,37.41,48.25,37.41,48.25s-14.21-89.76,5.96-92.83c20.17-3.07,14.53,92.83,14.53,92.83s6.12-68.24,25.6-67.21
				c19.49,1.02-4.6,67.21-4.6,67.21s14.35-39.54,28.18-34.42c13.83,5.12-3.07,34.42-3.07,34.42s29.72-28.79,49.19-30.07
				c19.47-1.27,26.39,30.07,26.39,30.07s12.28-51.84,29.58-55.43s11.4,88.19,11.4,88.19H18.62z"/>
		</g>
	</g>
</g>
</svg>
