<svg id="圖層_1" data-name="圖層 1" xmlns="http://www.w3.org/2000/svg" viewBox="0 0 599.87 299.85"><defs><style>.cls-1{fill:#94a93e;}.cls-2{fill:#c4d094;}.cls-3{fill:#fcfdfb;}</style></defs><title>grass</title><path class="cls-1" d="M599.72,118v22c-1.83,2-1.88,4,0,6V263.82c-3.08,9.73-1.21,19.84-2.25,29.72-3.63.11-7.26.29-10.9.32q-46.62.31-93.24.58a8.79,8.79,0,0,1-1.69-.55c-1.69-5.49-1.81-12.83-10.15-12.11-8.1.69-12.14-2.81-14.53-10.06-1.11-3.36-3.63-6.24-5.41-9.39-2.82-5-5.66-5.9-9.8-1-7.61,9-10.22,20-13.54,30.83-.6.78-1.19,1.57-1.79,2.36-5-.21-9.95-.6-14.92-.6q-101.72-.07-203.43.1c-6.85,0-10.83-1.56-13.18-8.61-3.89-11.66-5.22-12.12-12.52-2.88-5.82,7.38-8.73,5.46-13-.69a41.53,41.53,0,0,1-5.15-10.67,27.37,27.37,0,0,0-9.5-13.49c-5.38-4-9.29-3.39-10.17,3.62-1,8-4.92,15.1-6.62,22.81-1.64,7.38-5.29,10-13.08,10-43.54-.38-87.09-.2-130.63-.22-2.43-9.85,0-20.34-3.95-30v-20a13,13,0,0,0,0-12v-42c4.41-8,3.25-17.2,5.85-25.58a15.84,15.84,0,0,1,9.47-10.15c5.48-2.06,4.91,4.46,7.35,6.88,6.08,6.05,6.24,14.83,11,21.32,2.85,3.87,1.51,10.11,8.3,13.79-3.79-23.7-6.91-45.92-11-68C27.68,109.39,23,90.8,18.92,72.09,17.58,66,19,58.72,24.37,57.18c4.48-1.28,4.89,6.41,6.11,10.41,7.79,25.56,9.48,52.06,11.7,78.47a22,22,0,0,0,1.28,14.12c3.23-6.25,2.62-10.58,1.62-14.93,0-21.59.89-43.18,3.67-64.55,2-15.76,2-32.11,10.42-46.71,3.11-5.38,3.27-5.38,7.83-.89,9.64,9.52,8.5,22.2,10.82,33.33,9.3,44.53,11.7,89.95,14.57,135.26-.4,2.75-.71,5.48,1,8.47,2.38-3.13,2.62-5.6,1.18-8.21.27-5.32.36-10.65.84-15.94,3.25-35.65,1.5-72,14.77-106.25.76-2-.31-5.22,3.1-5.35s2.58,3.37,3.57,5.18c2.75,5,3,10.7,3.43,16.3,2.51,31.58.7,63.12-1,94.66-.38,7-.89,14-1.34,20.94,6.74-15.05,14.31-29.11,22-43.11,1.3-2.35,2.85-2.33,4.73-2.52,2.58-.27,2.82,1.56,3.73,3.5,4,8.65,4.52,17.74,4.38,27,0,3.62-1.73,7.56,1.58,12.33,3.49-9.79,5.9-18.66,9.81-26.8,2.74-5.71,7.14-10.81,11.61-15.39,1.53-1.56,5.71-1.71,7.74,1.75,2.21,3.77,5.32,7.07,5.79,11.83,2-17.26-3.57-33.21-7.49-49.4-1.78-7.36-4.28-14.58-5.57-22-.6-3.41-2.6-8.83,2.24-10.42,6.25-2.06,6.39,4.34,7.56,7.9,4.55,13.88,6.65,28.28,8.17,42.77,1.41,13.36,2.74,26.73,4.11,40.1,1.35-11.78,1.14-23.4,1.4-35,.5-23.2.27-46.47,6.39-69.19.92-3.43,1.86-5.16,5.72-5.15,4.09,0,4.18,2.34,5.24,5.45,7,20.74,7.32,42.38,8.75,63.82,1.11,16.67,2.11,33.36,2.24,50.14,4.46-27.64,3.66-55.88,12-82.86.82-2.68-.53-6.06,4.16-6.37,5-.34,4.18,3.59,4.62,6a193,193,0,0,1,2.65,35.7c-.08,18.14,0,36.28,0,54,2.61-7.46,5.94-15.46,8.09-23.77,1.14-4.4,4-5.48,7.08-5.23,3.5.28,3.84,3.68,4.06,6.83.43,6.28-2.49,12.46-.55,18.76,5.58.4,5.55-3.83,5.92-7.25.38-3.59,1.58-5.42,5.53-5.25,3.16.13,4.79,1.1,5.28,4.42.78,5.36,4.43,9.05,7.95,13.72,1.29-4.74.63-8.3.13-11.93a560.69,560.69,0,0,1-5.36-61.52c-.23-8.45-.15-16.93,7.07-24.27,11.07,27.9,14.36,57,19.43,85.63-.29,3.89-.94,7.9,3.21,11a19.14,19.14,0,0,0,.31-11.2q-2.88-59.81-.57-119.64c.69-18.19.61-36.56,5.84-54.27.94-3.15-.53-8.54,3.93-8.87,3.87-.29,4.31,5.39,6.95,8,1.63,1.58,1.62,4.83,2.39,7.32,5.58,18,6.47,36.87,9.11,55.32a893.1,893.1,0,0,1,8.91,100.21c-1.36,6.56,1.38,12.42,3.14,18.44-.06,1.85-.13,3.69-.19,5.54-.81,1.24-.34,1.85,1,2,2-.64,1.77-2.44,2.15-4,5-20.76,12.3-40.83,18.89-61.12,1.3-4,2.91-5.31,6.87-4.93,3.8.37,3.71,2.94,4,5.62,1.86,17.45,3.6,34.87.16,52.36a14.15,14.15,0,0,0,2.25,11.65c3-10.33,5.47-19,7.89-27.65,1.48-5.28,4.33-11.69,8.78-12.32,5.52-.78,6.08,7,8.71,11.08,2.13,6.51,1.26,14.2,7.9,19.16-3.21-13.27-.69-27.07-4.73-40.17-1.15-20.33-6.94-40.72.26-63.12,15.58,34.42,19.82,69.5,27.25,103.8-.22-33.25-1.62-66.31-2.51-99.39A729.79,729.79,0,0,1,451.85.15h12c1.41,17.46,4.16,34.78,4.39,52.37.4,31.14,1.28,62.26,2,93.39-3,11.24-2,22.53-.5,33.84,3.63-11.19.87-22.69,1.92-34,3.36-28.7,3.75-57.81,12.06-85.83.6-2,.6-4,3.24-4,2.25,0,4.3-.25,5.19,3.09,1.34,5.06,3.28,9.91,3.54,15.27,1.16,24.27-.81,48.41-2.75,72.56-.5,6.19-1.95,12.39-.22,20.22,2.73-9.42,4.91-17.18,7.24-24.9.86-2.85,2.3-5.56,5.85-5.38s5,2.95,5.77,5.89a30.77,30.77,0,0,1,1.36,7.79c.06,15.56-.12,31.12-4.48,46.26-.64,2.23-1.35,4.66,3.4,5.31,2-14.72,11.85-26.26,16.71-40.19,1.84-5.27,4.48-12.76,11.09-16l10.48-.2c6.12,7.52,6.94,17,9.59,25.8,2.21,7.38,1.08,15.52,5.2,24,1.56-7.06.62-12.56.28-18.08-1.82-29.6-1.23-59.16,2.79-88.55.73-5.39.15-12.13,6.67-15.36.33-.17.38-.87.56-1.32-.26-.1-.57-.35-.77-.28-.93.34-.87.77-.27,1.5,4,4.86,3.24,10.6,2.56,16.13-2.12,17.41-4.47,34.8-6.75,52.19-.33,2.53.06,4.61,3.23,5.26,2.25-18.4,4.8-36.74,10.55-54.42,1-3.2,1.31-7.29,6.76-6.72s3.78,5,4.49,7.57C597.24,101.34,595.08,110.31,599.72,118Z" transform="translate(-0.13 -0.15)"/><path class="cls-2" d="M4.2,293.82c43.54,0,87.09-.16,130.63.22,7.79.07,11.44-2.57,13.08-10,1.7-7.71,5.61-14.78,6.62-22.81.88-7,4.79-7.65,10.17-3.62a27.37,27.37,0,0,1,9.5,13.49,41.53,41.53,0,0,0,5.15,10.67c4.29,6.15,7.2,8.07,13,.69,7.3-9.24,8.63-8.78,12.52,2.88,2.35,7.05,6.33,8.63,13.18,8.61q101.71-.33,203.43-.1c5,0,9.94.39,14.92.6a5.51,5.51,0,0,1-.56,5.28H4.25Z" transform="translate(-0.13 -0.15)"/><path class="cls-2" d="M493.33,294.44q46.62-.29,93.24-.58c3.64,0,7.27-.21,10.9-.32l.75.72c-.17,1.84-.33,3.68-.5,5.52H493.81Z" transform="translate(-0.13 -0.15)"/><path class="cls-3" d="M493.33,294.44l.48,5.34H435.86a5.51,5.51,0,0,0,.56-5.28c.6-.79,1.19-1.58,1.79-2.36,17.68,4.59,35.6,1.63,53.43,1.75A8.79,8.79,0,0,0,493.33,294.44Z" transform="translate(-0.13 -0.15)"/><path class="cls-3" d="M4.2,293.82l0,6c-3.46.79-4.21-.52-4.11-4,.3-10.65.11-21.31.11-32C4.19,273.48,1.77,284,4.2,293.82Z" transform="translate(-0.13 -0.15)"/><path class="cls-2" d="M597.47,293.54c1-9.88-.83-20,2.25-29.72v30a1,1,0,0,1-1.5.48Z" transform="translate(-0.13 -0.15)"/><path class="cls-2" d="M.25,231.86a13,13,0,0,1,0,12Z" transform="translate(-0.13 -0.15)"/><path class="cls-2" d="M599.72,146c-1.88-2-1.83-4,0-6Z" transform="translate(-0.13 -0.15)"/><path class="cls-3" d="M598.22,294.26a1,1,0,0,0,1.5-.48c-1,1.9,2.29,5.2-2,6C597.89,297.94,598.05,296.1,598.22,294.26Z" transform="translate(-0.13 -0.15)"/><path class="cls-2" d="M491.64,293.89c-17.83-.12-35.75,2.84-53.43-1.75,3.32-10.8,5.93-21.85,13.54-30.83,4.14-4.88,7-3.95,9.8,1,1.78,3.15,4.3,6,5.41,9.39,2.39,7.25,6.43,10.75,14.53,10.06C489.83,281.06,490,288.4,491.64,293.89Z" transform="translate(-0.13 -0.15)"/><path class="cls-2" d="M419.85,180.34c-.66-5.15,2.55-10.3-1.2-15.64-2.18-3.11,1.07-5,4.37-5.37,4,13.1,1.52,26.9,4.73,40.17C421.11,194.54,422,186.85,419.85,180.34Z" transform="translate(-0.13 -0.15)"/><path class="cls-2" d="M470.19,145.91a3,3,0,0,1,1.42-.16c-1.05,11.31,1.71,22.81-1.92,34C468.2,168.44,467.19,157.15,470.19,145.91Z" transform="translate(-0.13 -0.15)"/><path class="cls-2" d="M361.62,177.74c1,8.29-.6,16.32-2.29,24.35-1.76-6-4.5-11.88-3.14-18.44l3.35-5.85Z" transform="translate(-0.13 -0.15)"/><path class="cls-2" d="M539.61,145.78c1.28-2.62,1.92-5.72,6-5.54,3.69.16,4.17,2.57,4.48,5.34Z" transform="translate(-0.13 -0.15)"/><path class="cls-2" d="M42.18,146.06l2.9-.81c1,4.35,1.61,8.68-1.62,14.93A22,22,0,0,1,42.18,146.06Z" transform="translate(-0.13 -0.15)"/><path class="cls-2" d="M316.11,195.77l3.52-.15a19.14,19.14,0,0,1-.31,11.2C315.17,203.67,315.82,199.66,316.11,195.77Z" transform="translate(-0.13 -0.15)"/><path class="cls-2" d="M92.39,201.69l2.17.26c1.44,2.61,1.2,5.08-1.18,8.21C91.68,207.17,92,204.44,92.39,201.69Z" transform="translate(-0.13 -0.15)"/><path class="cls-2" d="M359.14,207.63l1,2C358.8,209.48,358.33,208.87,359.14,207.63Z" transform="translate(-0.13 -0.15)"/><path class="cls-1" d="M415.33,154.73c-4.67-30.5-13.64-60.62-8.2-92l3.61-.32,7.8,92.05Z" transform="translate(-0.13 -0.15)"/><path class="cls-1" d="M361.62,177.74l-2.08.06c.17-29.25,1.11-58.46,6.76-87.26,1.12-5.73,1.57-16.49,6.6-15.29,6.57,1.57,3.1,11.16,1.74,17.13A579.26,579.26,0,0,0,361.62,177.74Z" transform="translate(-0.13 -0.15)"/></svg>